version: 1
n_points: 68
{
197.1194 545.6702
196.9275 586.3887
199.9235 628.0605
213.3506 695.9509
228.0411 738.0276
256.7778 783.1413
282.3031 806.3119
329.1375 834.6841
394.1827 846.6263
456.8229 832.7271
500.0298 803.2011
523.6433 780.0278
550.0310 735.7803
569.8796 671.0745
577.1066 627.2158
580.3681 585.7615
580.5715 545.2779
226.7822 479.9386
242.2781 460.1964
267.9886 449.0831
304.6874 448.3706
349.2367 453.0027
444.9538 452.2284
488.7381 447.1055
524.0388 447.2467
548.4420 457.8587
561.9877 477.4596
396.8819 526.7020
396.6282 566.6220
396.2926 593.6910
396.1064 616.6535
360.9476 649.0744
373.4813 657.1793
395.5600 657.1356
416.8962 657.4995
429.1944 649.6425
269.1307 530.1413
286.9215 521.9752
312.5970 520.3735
341.3404 532.1329
313.9879 535.4213
288.5644 536.1294
450.8716 532.8857
480.0169 519.4399
506.3779 520.4617
523.9919 529.5003
503.7186 536.9924
477.7609 536.0975
326.1804 730.8195
354.7612 705.3463
375.5651 696.3629
396.2954 700.8736
416.6808 696.8181
437.1375 706.2553
466.5648 732.0585
452.4190 745.0578
418.7731 758.3207
396.9033 759.6616
375.2527 757.8879
341.6738 743.6981
332.9323 729.7131
380.1741 722.7217
396.4235 723.5610
412.6038 723.4538
460.1198 730.9531
413.3961 726.0453
397.0051 726.1959
380.0541 725.1545
}
